<svg xmlns="http://www.w3.org/2000/svg" x="0px" y="0px"
width="25" height="25"
viewBox="0,0,256,256"
style="fill:#000000;">
<g fill="#400073" fill-rule="nonzero" stroke="none" stroke-width="1" stroke-linecap="butt" stroke-linejoin="miter" stroke-miterlimit="10" stroke-dasharray="" stroke-dashoffset="0" font-family="none" font-weight="none" font-size="none" text-anchor="none" style="mix-blend-mode: normal"><g transform="scale(5.12,5.12)"><path d="M25,1c-8.57031,0 -15.74609,6.02344 -17.55078,14.05859c0.18359,-0.02344 0.36328,-0.05859 0.55078,-0.05859c0.51172,0 1,0.10156 1.46484,0.24609c1.69531,-7.01562 8.00781,-12.24609 15.53516,-12.24609c7.52344,0 13.83984,5.23047 15.53516,12.24609c0.46484,-0.14453 0.94922,-0.24609 1.46484,-0.24609c0.1875,0 0.36719,0.03516 0.55078,0.05859c-1.80469,-8.03516 -8.98437,-14.05859 -17.55078,-14.05859zM8,17c-1.65234,0 -3,1.34766 -3,3v15c0,1.65234 1.34766,3 3,3c1.65234,0 3,-1.34766 3,-3v-15c0,-1.65234 -1.34766,-3 -3,-3zM42,17c-1.65234,0 -3,1.34766 -3,3v15c0,1.65234 1.34766,3 3,3c1.65234,0 3,-1.34766 3,-3v-15c0,-1.65234 -1.34766,-3 -3,-3zM3,20.10938c-1.80469,1.45313 -3,4.18359 -3,7.39063c0,3.20703 1.19531,5.9375 3,7.39063zM47,20.10938v14.78125c1.80469,-1.45312 3,-4.1875 3,-7.39062c0,-3.20703 -1.19531,-5.9375 -3,-7.39062zM35,27c-11.22656,0 -16.67187,3.92969 -19.10937,7.98438c-1.59375,2.66406 -1.90234,5.3125 -1.92578,6.83984c-0.66406,0.87891 -1.28516,1.76953 -1.82422,2.66016c-0.19531,0.30859 -0.21094,0.69922 -0.03906,1.01953c0.17578,0.32422 0.51172,0.52344 0.875,0.52734c0.36719,0 0.70313,-0.19922 0.88281,-0.51562c0.30469,-0.51172 0.64453,-1.01953 0.99609,-1.52734c0.0625,0.01172 0.12891,0.01172 0.19531,0.01172c0,0 4.89453,-0.25 9.95313,-2.32422c5.05859,-2.07422 10.46094,-6.16016 10.99609,-13.60547c0.01563,-0.27734 -0.07812,-0.55078 -0.26953,-0.75391c-0.1875,-0.20312 -0.45312,-0.31641 -0.73047,-0.31641zM33.71484,29.11328c-0.48047,2.90234 -1.78906,5.15234 -3.52734,6.90234c-0.0625,-0.01172 -0.125,-0.01562 -0.1875,-0.01562h-4c-0.35937,-0.00391 -0.69531,0.18359 -0.87891,0.49609c-0.17969,0.3125 -0.17969,0.69531 0,1.00781c0.18359,0.3125 0.51953,0.5 0.87891,0.49609h1.73438c-1.10547,0.72656 -2.28906,1.33203 -3.48828,1.82422c-3.45703,1.41797 -6.28125,1.83203 -7.73828,1.98828c2.88281,-3.42578 6.80859,-6.43359 11.76953,-7.85156c0.48438,-0.13281 0.79688,-0.60937 0.72656,-1.10937c-0.07422,-0.5 -0.50781,-0.86719 -1.01562,-0.85547c-0.08984,0.00391 -0.17578,0.01563 -0.26562,0.04297c-4.66016,1.33203 -8.45312,3.93359 -11.39453,6.98047c0.23047,-0.88672 0.61328,-1.89844 1.28125,-3.00391c1.96875,-3.28516 6.36719,-6.59375 16.10547,-6.90234z"></path></g></g>
</svg>