<svg xmlns="http://www.w3.org/2000/svg" x="0px" y="0px"
width="64" height="64"
viewBox="0 0 64 64">
<ellipse cx="32" cy="61" opacity=".3" rx="19" ry="3"></ellipse><path fill="orange" d="M42.105,40.629c-0.378,0-0.758-0.012-1.142-0.037c-4.444-0.29-8.706-2.263-12-5.557 s-5.267-7.555-5.557-12c-0.306-4.69,1.271-9.018,4.441-12.188c3.168-3.169,7.496-4.745,12.187-4.441 c4.444,0.29,8.706,2.263,12,5.557s5.267,7.555,5.557,12c0.306,4.69-1.271,9.018-4.441,12.187l0,0c0,0,0,0,0,0 C50.241,39.062,46.353,40.629,42.105,40.629z M38.92,16.372c-1.586,0-2.994,0.541-4,1.548c-1.104,1.105-1.649,2.691-1.533,4.466 c0.132,2.021,1.072,4.002,2.649,5.579c1.576,1.577,3.558,2.517,5.579,2.649c1.781,0.116,3.361-0.428,4.466-1.533l0,0 c1.104-1.104,1.648-2.69,1.533-4.466c-0.132-2.021-1.072-4.002-2.649-5.579c-1.576-1.577-3.558-2.517-5.579-2.649 C39.229,16.376,39.074,16.372,38.92,16.372z"></path><path fill="none" stroke="#fff" stroke-linecap="round" stroke-linejoin="round" stroke-miterlimit="10" stroke-width="3" d="M28.073,17.784c0.555-1.541,1.432-2.935,2.604-4.107c1.082-1.082,2.333-1.908,3.716-2.464"></path><path fill="orange" d="M14.5,54.5c-1.28,0-2.559-0.488-3.536-1.464c-1.953-1.953-1.953-5.119,0-7.071l16.5-16.5 c1.953-1.952,5.118-1.952,7.071,0c1.953,1.953,1.953,5.119,0,7.071l-16.5,16.5C17.059,54.012,15.78,54.5,14.5,54.5z"></path><path fill="orange" d="M18,49c-1.28,0-2.559-0.488-3.536-1.464l-4.5-4.5c-1.953-1.953-1.953-5.119,0-7.071 c1.953-1.952,5.118-1.952,7.071,0l4.5,4.5c1.953,1.953,1.953,5.119,0,7.071C20.559,48.512,19.28,49,18,49z"></path><g><path d="M49.615,32.616c-2.152,2.153-5.08,3.194-8.326,2.987c-1.997-0.13-4.007-0.756-5.814-1.809 c-1.962-1.143-4.447-0.822-6.053,0.784L14.5,49.5c-1.305,1.305-1.717,3.148-1.277,4.813c0.42,0.111,0.846,0.187,1.277,0.187 c1.28,0,2.559-0.488,3.536-1.464l14.922-14.922c2.464,1.436,5.198,2.295,8.007,2.478c0.383,0.025,0.764,0.037,1.142,0.037 c4.248,0,8.135-1.568,11.045-4.478c0,0,0,0,0,0c1.2-1.2,2.17-2.567,2.897-4.056C54.095,30.698,51.37,30.862,49.615,32.616z" opacity=".15"></path><path fill="#fff" d="M23.408,23.036c0.109,1.665,0.46,3.301,1.023,4.873c2.397-0.502,4.13-2.683,3.966-5.198 c-0.21-3.233,0.851-6.19,2.988-8.327c2.135-2.135,5.101-3.194,8.328-2.986c2.518,0.156,4.699-1.575,5.198-3.975 c-1.572-0.562-3.21-0.906-4.874-1.015c-4.691-0.304-9.019,1.272-12.187,4.441C24.679,14.018,23.102,18.346,23.408,23.036z" opacity=".3"></path></g>
</svg>